# xmcd
#
# Track frame offsets: 
#        150
#        22751
#        47173
#        66693
#        82857
#        104717
#        124387
#        142825
#        158945
#        177650
#        201449
#        223696
#        239052
#        249538
#
# Disc length: 3564 seconds
#
# Revision: 0
# Processed by: cddbd v1.5.2PL0 Copyright (c) Steve Scherf et al.
# Submitted via: ExactAudioCopy v1.0b2
#
DISCID=d80dea0e
DTITLE=Various Artist - Soul Jams CD2
DYEAR=2006
DGENRE=Soul
TTITLE0=Al Green - Love and Happiness
TTITLE1=Marvin Gaye - Inner City Blues [Make Me Wanna Holler]
TTITLE2=The Staple Singers - I'll Take You There
TTITLE3=Ivana Santilli - Lonely Lullaby
TTITLE4=Sunshine Anderson - Heard It All Before
TTITLE5=Chris Rouse aka Hominy Manchild - Majik
TTITLE6=Dwele - Find a Way
TTITLE7=Big Black Lincoln - Rock N' Roll
TTITLE8=Donald Byrd - [Fallin' Like] Dominoes
TTITLE9=Faze-O - Riding High
TTITLE10=India Arie - Brown Skin
TTITLE11=Darondo - Didn't I
TTITLE12=Ohio Players - Ecstasy
TTITLE13=Roy Ayers - Everybody Loves the Sunshine
EXTD=
EXTT0=
EXTT1=
EXTT2=
EXTT3=
EXTT4=
EXTT5=
EXTT6=
EXTT7=
EXTT8=
EXTT9=
EXTT10=
EXTT11=
EXTT12=
EXTT13=
PLAYORDER=
